<svg id="Layer_3" data-name="Layer 3" xmlns="http://www.w3.org/2000/svg" viewBox="0 0 110.13455 79.46713"><defs><style>.cls-1{fill:#875926;}.cls-2{fill:#a88f6b;}.cls-3{fill:#557133;}</style></defs><polygon class="cls-1" points="56.996 28.476 56.996 0 98.606 0 110.085 11.479 110.085 32.339 104.34 38.083 110.135 43.878 110.135 66.93 98.162 78.903 71.896 78.903 71.896 66.322 90.924 66.322 98.856 58.39 98.856 51.764 90.895 43.803 81.388 43.803 81.388 32.449 90.77 32.449 98.716 24.502 98.716 19.315 90.715 11.313 68.475 11.313 68.475 28.476 56.996 28.476"/><rect class="cls-2" x="56.99621" y="46.79888" width="11.47859" height="32.66826"/><polygon class="cls-2" points="39.226 32.449 22.06 32.449 22.06 43.928 39.114 43.928 39.226 32.449"/><polygon class="cls-3" points="36.756 32.449 78.96 32.449 78.96 43.928 53.906 43.928 53.906 46.799 53.906 66.93 41.567 79.269 12.075 79.269 0 67.194 0 11.479 11.523 0 42.372 0 53.823 11.451 53.823 28.476 42.427 28.476 42.427 19.37 34.618 11.561 19.47 11.561 11.289 19.743 11.289 58.251 19.719 66.681 34.481 66.681 42.611 58.55 42.611 46.799 42.611 43.928 25.32 43.928 36.756 32.491 36.756 32.449"/></svg>